<?xml version="1.0" encoding="UTF-8"?>
<svg version="1.1" xmlns="http://www.w3.org/2000/svg" width="48" height="48">
<path d="M0 0 C4.25662554 3.08107639 7.4684332 7.12763904 8.75390625 12.26953125 C9.52614078 19.12459776 8.85521494 24.60341555 4.75390625 30.26953125 C0.1821785 35.19196688 -4.4258837 37.33061673 -11.05859375 37.64453125 C-16.93937652 37.50451261 -21.44629977 35.86984882 -25.78125 31.84375 C-30.5129015 26.5051228 -31.72452185 21.80101126 -31.55859375 14.83203125 C-30.884261 9.30250271 -28.4552296 5.06971496 -24.30859375 1.39453125 C-16.69320478 -3.8896162 -8.21243567 -4.69519049 0 0 Z M-23.05859375 7.89453125 C-25.95238938 11.65927508 -26.52335856 15.59803932 -26.24609375 20.26953125 C-24.64916531 25.15425355 -21.79087425 28.80039726 -17.24609375 31.26953125 C-12.82799733 32.56012214 -9.37634702 32.63903713 -4.99609375 31.20703125 C-0.98765495 28.38290392 2.0024985 25.84183508 3.390625 21.08984375 C4.18992128 15.98466108 3.81092941 12.60853186 0.75390625 8.26953125 C-3.22298818 4.00857293 -6.23078192 2.464171 -12.07421875 2.140625 C-16.93971725 2.42940459 -19.60069147 4.66715579 -23.05859375 7.89453125 Z " fill="#FFFFFF" transform="translate(35.24609375,6.73046875)"/>
<path d="M0 0 C-0.36100891 3.24908017 -0.63290961 4.65515751 -3.0625 6.9375 C-5.25259466 8.90009674 -5.25259466 8.90009674 -5.5625 11.9375 C-5.25784538 15.22709318 -5.25784538 15.22709318 -2.4375 17.5625 C-1.633125 18.366875 -0.82875 19.17125 0 20 C-0.1875 22.8125 -0.1875 22.8125 -1 25 C-4.9218928 24.10866073 -6.68768434 23.37140241 -9.3125 20.25 C-11.82083319 15.41913608 -12.55835243 12.08488281 -10.9375 6.875 C-8.91054542 2.00844086 -5.46631157 -1.82210386 0 0 Z " fill="#FFFFFF" transform="translate(22,12)"/>
</svg>
