<?xml version="1.0" encoding="UTF-8"?>
<svg version="1.1" xmlns="http://www.w3.org/2000/svg" width="219" height="72">
<path d="M0 0 C4.25662554 3.08107639 7.4684332 7.12763904 8.75390625 12.26953125 C9.52614078 19.12459776 8.85521494 24.60341555 4.75390625 30.26953125 C0.1821785 35.19196688 -4.4258837 37.33061673 -11.05859375 37.64453125 C-16.93937652 37.50451261 -21.44629977 35.86984882 -25.78125 31.84375 C-30.5129015 26.5051228 -31.72452185 21.80101126 -31.55859375 14.83203125 C-30.884261 9.30250271 -28.4552296 5.06971496 -24.30859375 1.39453125 C-16.69320478 -3.8896162 -8.21243567 -4.69519049 0 0 Z M-23.05859375 7.89453125 C-25.95238938 11.65927508 -26.52335856 15.59803932 -26.24609375 20.26953125 C-24.64916531 25.15425355 -21.79087425 28.80039726 -17.24609375 31.26953125 C-12.82799733 32.56012214 -9.37634702 32.63903713 -4.99609375 31.20703125 C-0.98765495 28.38290392 2.0024985 25.84183508 3.390625 21.08984375 C4.18992128 15.98466108 3.81092941 12.60853186 0.75390625 8.26953125 C-3.22298818 4.00857293 -6.23078192 2.464171 -12.07421875 2.140625 C-16.93971725 2.42940459 -19.60069147 4.66715579 -23.05859375 7.89453125 Z " fill="#000000" transform="translate(41.24609375,18.73046875)"/>
<path d="M0 0 C3.6941326 2.40548169 5.30226548 4.20906193 6.375 8.5 C6.478125 9.2425 6.58125 9.985 6.6875 10.75 C4.0475 10.75 1.4075 10.75 -1.3125 10.75 C-1.51875 10.110625 -1.725 9.47125 -1.9375 8.8125 C-3.20370747 6.46360396 -3.20370747 6.46360396 -6.1875 5.75 C-9.30890115 5.49808015 -9.30890115 5.49808015 -11.6875 7.0625 C-14.17321226 11.17348566 -14.0729062 15.0711741 -13.3125 19.75 C-11.91162251 22.5713337 -11.91162251 22.5713337 -9.3125 23.75 C-6.16539698 24.00329784 -6.16539698 24.00329784 -3.3125 22.75 C-1.85958727 20.28744315 -1.85958727 20.28744315 -1.3125 17.75 C1.3275 18.08 3.9675 18.41 6.6875 18.75 C5.40982235 23.74455809 3.55838216 26.36297811 -0.3125 29.75 C-4.02486414 31.60618207 -8.26093088 31.19809981 -12.3125 30.75 C-16.75092206 28.57113826 -19.41842534 26.33565445 -21.3125 21.75 C-22.75520398 15.27460772 -22.81951498 9.5459446 -19.3125 3.75 C-13.6959363 -1.72614961 -7.24506535 -2.73398693 0 0 Z " fill="#000000" transform="translate(89.3125,21.25)"/>
<path d="M0 0 C2.31 0 4.62 0 7 0 C7.33 2.31 7.66 4.62 8 7 C8.92232422 6.94779297 8.92232422 6.94779297 9.86328125 6.89453125 C10.67152344 6.86746094 11.47976562 6.84039063 12.3125 6.8125 C13.51326172 6.76029297 13.51326172 6.76029297 14.73828125 6.70703125 C17 7 17 7 18.73046875 8.32421875 C20.84735058 11.11850277 21.12309138 13.62884626 21.09765625 17.01171875 C21.09443359 17.76904297 21.09121094 18.52636719 21.08789062 19.30664062 C21.07951172 20.09232422 21.07113281 20.87800781 21.0625 21.6875 C21.05798828 22.48478516 21.05347656 23.28207031 21.04882812 24.10351562 C21.0370585 26.06904257 21.01912348 28.03453085 21 30 C18.69 30 16.38 30 14 30 C13.67 24.39 13.34 18.78 13 13 C11.35 13.33 9.7 13.66 8 14 C7.67 19.28 7.34 24.56 7 30 C4.69 30 2.38 30 0 30 C0 20.1 0 10.2 0 0 Z " fill="#000000" transform="translate(99,21)"/>
<path d="M0 0 C0.92683594 -0.01933594 1.85367188 -0.03867187 2.80859375 -0.05859375 C6.4582506 0.59886217 8.0558642 1.7127023 10.5625 4.4375 C11.234375 7.63671875 11.234375 7.63671875 11.3125 11.125 C11.06511862 15.09714251 11.06511862 15.09714251 12.5625 18.4375 C12.60330783 20.43708364 12.60504356 22.43795254 12.5625 24.4375 C11.634375 24.2725 10.70625 24.1075 9.75 23.9375 C5.52402185 23.2103109 5.52402185 23.2103109 1.5625 24.4375 C-5.38313427 24.88560544 -5.38313427 24.88560544 -8.9375 23.375 C-11.25096701 20.38677177 -10.8943702 18.09246159 -10.4375 14.4375 C-8.36533437 11.09901093 -5.11458126 10.39354113 -1.4375 9.4375 C1.4375 9.3125 1.4375 9.3125 3.5625 9.4375 C3.2325 8.4475 2.9025 7.4575 2.5625 6.4375 C-0.72825996 6.81654208 -0.72825996 6.81654208 -3.4375 8.4375 C-5.77047433 8.47842937 -8.10455225 8.47991723 -10.4375 8.4375 C-10.11872276 5.4888105 -9.90637329 3.88813337 -7.73046875 1.796875 C-4.96148486 0.15529681 -3.20335491 0.00444293 0 0 Z M-3.4375 16.4375 C-3.1075 17.4275 -2.7775 18.4175 -2.4375 19.4375 C-0.7875 19.1075 0.8625 18.7775 2.5625 18.4375 C2.8925 17.1175 3.2225 15.7975 3.5625 14.4375 C-0.48372502 14.06769987 -0.48372502 14.06769987 -3.4375 16.4375 Z " fill="#000000" transform="translate(133.4375,27.5625)"/>
<path d="M0 0 C2.66666667 0 5.33333333 0 8 0 C8.67933594 -0.03480469 9.35867187 -0.06960937 10.05859375 -0.10546875 C10.84363281 -0.13253906 11.62867188 -0.15960937 12.4375 -0.1875 C13.21996094 -0.22230469 14.00242188 -0.25710937 14.80859375 -0.29296875 C17 0 17 0 18.72265625 1.32421875 C20.85002242 4.11516703 21.12311061 6.62628843 21.09765625 10.01171875 C21.09443359 10.76904297 21.09121094 11.52636719 21.08789062 12.30664062 C21.07951172 13.09232422 21.07113281 13.87800781 21.0625 14.6875 C21.05798828 15.48478516 21.05347656 16.28207031 21.04882812 17.10351562 C21.0370585 19.06904257 21.01912348 21.03453085 21 23 C18.69 23 16.38 23 14 23 C13.67 17.39 13.34 11.78 13 6 C11.35 6 9.7 6 8 6 C7.67 11.61 7.34 17.22 7 23 C4.69 23 2.38 23 0 23 C0 15.41 0 7.82 0 0 Z " fill="#000000" transform="translate(149,28)"/>
<path d="M0 0 C2.31 0 4.62 0 7 0 C7.33 7.92 7.66 15.84 8 24 C8.99 24.33 9.98 24.66 11 25 C11 26.65 11 28.3 11 30 C9.54257537 30.08096803 8.08387193 30.13917774 6.625 30.1875 C5.81289062 30.22230469 5.00078125 30.25710937 4.1640625 30.29296875 C3.44992188 30.19628906 2.73578125 30.09960938 2 30 C-0.36008817 26.45986775 -0.23463644 24.98878045 -0.1953125 20.80078125 C-0.18886719 19.59228516 -0.18242187 18.38378906 -0.17578125 17.13867188 C-0.15064453 15.2447168 -0.15064453 15.2447168 -0.125 13.3125 C-0.11597656 12.03826172 -0.10695312 10.76402344 -0.09765625 9.45117188 C-0.07405641 6.30059373 -0.04113194 3.15039017 0 0 Z " fill="#000000" transform="translate(174,21)"/>
<path d="M0 0 C-0.36100891 3.24908017 -0.63290961 4.65515751 -3.0625 6.9375 C-5.25259466 8.90009674 -5.25259466 8.90009674 -5.5625 11.9375 C-5.25784538 15.22709318 -5.25784538 15.22709318 -2.4375 17.5625 C-1.633125 18.366875 -0.82875 19.17125 0 20 C-0.1875 22.8125 -0.1875 22.8125 -1 25 C-4.9218928 24.10866073 -6.68768434 23.37140241 -9.3125 20.25 C-11.82083319 15.41913608 -12.55835243 12.08488281 -10.9375 6.875 C-8.91054542 2.00844086 -5.46631157 -1.82210386 0 0 Z " fill="#000000" transform="translate(28,24)"/>
</svg>
